<svg width="462" height="174" viewBox="0 0 462 174" fill="none" xmlns="http://www.w3.org/2000/svg">
<path fill-rule="evenodd" clip-rule="evenodd" d="M206 20C206 31.0457 196.822 40 185.5 40C174.178 40 165 31.0457 165 20C165 8.9543 174.178 0 185.5 0C196.822 0 206 8.9543 206 20ZM269.427 98.4481V89.8081H291.443C291.443 94.2027 290.91 97.9361 289.844 101.008C288.82 104.037 287.07 106.704 284.596 109.008C280.755 112.592 275.742 114.384 269.555 114.384C262.771 114.384 257.31 112.272 253.171 108.048C249.076 103.952 247.027 98.8107 247.027 92.6241C247.027 86.1387 249.161 80.8054 253.427 76.6241C257.609 72.4427 263.134 70.3521 270.004 70.3521C274.526 70.3521 278.366 71.312 281.523 73.2321C284.852 75.2801 287.39 78.2027 289.139 82.0001L278.579 86.3521C277.897 84.6454 276.873 83.216 275.508 82.0641C273.801 80.6561 271.817 79.9521 269.555 79.9521C266.654 79.9521 264.222 80.9334 262.259 82.896C259.785 85.3707 258.547 88.6347 258.547 92.688C258.547 96.4427 259.678 99.5147 261.939 101.904C263.987 104.08 266.59 105.168 269.747 105.168C272.265 105.168 274.313 104.507 275.892 103.184C277.299 102.032 278.174 100.453 278.516 98.4481H269.427ZM232.152 114L229.528 106.832H214.04L211.16 114H199.448L215.832 71.312H227.928L243.992 114H232.152ZM217.112 98.384H226.584L221.784 84.5601L217.112 98.384ZM324.046 80.72V71.312H299.79V114H324.046V104.592H310.862V97.2321H323.342V87.8241H310.862V80.72H324.046ZM343.454 114H332.383V71.312H343.454L363.87 97.4241V71.312H374.943V114H363.87L343.454 87.8881V114ZM415.818 112.848V99.7281C413.088 102.715 409.867 104.208 406.154 104.208C402.954 104.208 400.309 103.227 398.219 101.264C395.914 99.0881 394.763 96.3147 394.763 92.9441C394.763 89.4027 396 86.48 398.474 84.1761C400.565 82.2987 403.125 81.36 406.154 81.36C410.08 81.36 413.301 82.9174 415.818 86.0321V72.784C412.234 71.3334 408.906 70.608 405.835 70.608C399.435 70.608 394.059 72.8267 389.706 77.2641C387.744 79.2694 386.165 81.6587 384.97 84.4321C383.818 87.2054 383.242 90.0641 383.242 93.0081C383.242 95.8241 383.797 98.6187 384.906 101.392C386.058 104.123 387.659 106.512 389.706 108.56C394.059 112.827 399.562 114.96 406.219 114.96C408.736 114.96 411.936 114.256 415.818 112.848ZM434.306 114V93.5201L418.882 71.312H432.13L440.194 82.9601L447.938 71.312H461.378L445.442 93.5201V114H434.306ZM167 91.5C167 137.063 129.616 174 83.5 174C37.3842 174 0 137.063 0 91.5C0 45.9365 37.3842 9 83.5 9C129.616 9 167 45.9365 167 91.5ZM35.552 114H24.48V71.312H35.552L55.968 97.424V71.312H67.04V114H55.968L35.552 87.888V114ZM74.7 71.312H85.772V104.592H99.084V114H74.7V71.312ZM148.852 92.688C148.852 99.0027 146.611 104.315 142.132 108.624C137.694 112.848 132.083 114.96 125.299 114.96C118.516 114.96 112.905 112.848 108.467 108.624C103.988 104.315 101.747 99.0027 101.747 92.688C101.747 89.744 102.302 86.864 103.411 84.048C104.563 81.232 106.249 78.7787 108.467 76.688C112.905 72.464 118.516 70.352 125.299 70.352C132.083 70.352 137.694 72.464 142.132 76.688C144.35 78.7787 146.014 81.232 147.124 84.048C148.275 86.864 148.852 89.744 148.852 92.688ZM125.299 81.104C121.801 81.104 118.921 82.2347 116.66 84.496C114.398 86.7147 113.268 89.5093 113.268 92.88C113.268 95.9947 114.398 98.64 116.66 100.816C119.006 103.077 121.886 104.208 125.299 104.208C128.798 104.208 131.657 103.099 133.876 100.88C136.18 98.576 137.331 95.8453 137.331 92.688C137.331 89.4453 136.18 86.7147 133.876 84.496C131.486 82.2347 128.628 81.104 125.299 81.104Z" fill="white"/>
</svg>
